<svg width="96" height="96" viewBox="0 0 96 96" fill="none" xmlns="http://www.w3.org/2000/svg">
  <rect width="96" height="96" rx="22" fill="#020617"/>
  <path d="M25 28.5L46.5 16.2C49.7 14.4 53.6 14.4 56.8 16.2L75 26.6C77.2 27.9 78.6 30.2 78.6 32.8V37.1C78.6 40.7 74.7 42.9 71.6 41.1L55.7 31.9C52.9 30.3 49.4 30.3 46.6 31.9L32.4 40.1L25 35.8C22.2 34.2 22.2 30.1 25 28.5Z" fill="url(#top)"/>
  <path d="M21.4 50.1C21.4 46.5 25.3 44.3 28.4 46.1L44.3 55.3C47.1 56.9 50.6 56.9 53.4 55.3L67.6 47.1L75 51.4C77.8 53 77.8 57.1 75 58.7L53.5 71C50.3 72.8 46.4 72.8 43.2 71L25 60.6C22.8 59.3 21.4 57 21.4 54.4V50.1Z" fill="url(#bottom)"/>
  <path d="M33.3 41.2L50 50.8L42.6 55.1L25.9 45.5L33.3 41.2Z" fill="#0EA5FF"/>
  <rect x="59.2" y="39.4" width="13.5" height="13.5" rx="3.6" transform="rotate(30 59.2 39.4)" fill="url(#dot)"/>
  <defs>
    <linearGradient id="top" x1="21.2" y1="42.2" x2="77.1" y2="22.6" gradientUnits="userSpaceOnUse">
      <stop stop-color="#1D4EFF"/>
      <stop offset="1" stop-color="#12C8FF"/>
    </linearGradient>
    <linearGradient id="bottom" x1="76.4" y1="46.3" x2="21.4" y2="66.1" gradientUnits="userSpaceOnUse">
      <stop stop-color="#0B1F4B"/>
      <stop offset="0.54" stop-color="#0B72FF"/>
      <stop offset="1" stop-color="#2763FF"/>
    </linearGradient>
    <linearGradient id="dot" x1="59.2" y1="39.4" x2="72.7" y2="52.9" gradientUnits="userSpaceOnUse">
      <stop stop-color="#22D3EE"/>
      <stop offset="1" stop-color="#1D4EFF"/>
    </linearGradient>
  </defs>
</svg>
